HIERARCHY
ROOT Hips
{
	OFFSET 0.000000 0.000000 0.000000
	CHANNELS 6 Xposition Yposition Zposition Xrotation Yrotation Zrotation
	JOINT LeftUpLeg_virtual
	{
		OFFSET 0.000000 0.000000 0.000000
		CHANNELS 3 Xrotation Yrotation Zrotation
		JOINT LeftUpLeg
		{
			OFFSET 11.394100 -6.187798 -0.413800
			CHANNELS 3 Xrotation Yrotation Zrotation
			JOINT LeftLeg
			{
				OFFSET 0.430247 -32.302673 3.732800
				CHANNELS 3 Xrotation Yrotation Zrotation
				JOINT LeftFoot
				{
					OFFSET -0.430247 -48.264931 -6.423300
					CHANNELS 3 Xrotation Yrotation Zrotation
					JOINT LeftToeBase
					{
						OFFSET 4.230900 -16.068199 23.438400
						CHANNELS 3 Xrotation Yrotation Zrotation
						JOINT LeftToe_End
						{
							OFFSET 4.510700 0.695400 19.974600
							CHANNELS 3 Xrotation Yrotation Zrotation
							End Site
							{
								OFFSET 0 0 0
							}
						}
					}
				}
			}
		}
	}
	JOINT RightUpLeg_virtual
	{
		OFFSET 0.000000 0.000000 0.000000
		CHANNELS 3 Xrotation Yrotation Zrotation
		JOINT RightUpLeg
		{
			OFFSET -11.333700 -6.187798 -0.413800
			CHANNELS 3 Xrotation Yrotation Zrotation
			JOINT RightLeg
			{
				OFFSET -0.430392 -32.302628 3.733000
				CHANNELS 3 Xrotation Yrotation Zrotation
				JOINT RightFoot
				{
					OFFSET 0.430392 -48.264973 -6.423500
					CHANNELS 3 Xrotation Yrotation Zrotation
					JOINT RightToeBase
					{
						OFFSET -4.230900 -16.068199 23.438400
						CHANNELS 3 Xrotation Yrotation Zrotation
						JOINT RightToe_End
						{
							OFFSET -4.510700 0.695400 19.974600
							CHANNELS 3 Xrotation Yrotation Zrotation
							End Site
							{
								OFFSET 0 0 0
							}
						}
					}
				}
			}
		}
	}
	JOINT Spine_virtual
	{
		OFFSET 0.000000 0.000000 0.000000
		CHANNELS 3 Xrotation Yrotation Zrotation
		JOINT Spine
		{
			OFFSET -0.002400 12.777504 0.315300
			CHANNELS 3 Xrotation Yrotation Zrotation
			JOINT Spine1
			{
				OFFSET -0.002067 5.816869 0.032633
				CHANNELS 3 Xrotation Yrotation Zrotation
				JOINT Spine1_split
				{
					OFFSET -0.002067 5.816869 0.032633
					CHANNELS 3 Xrotation Yrotation Zrotation
					JOINT Spine2
					{
						OFFSET -0.002067 5.816869 0.032633
						CHANNELS 3 Xrotation Yrotation Zrotation
						JOINT Neck_virtual
						{
							OFFSET 0.000000 0.000000 0.000000
							CHANNELS 3 Xrotation Yrotation Zrotation
							JOINT Neck
							{
								OFFSET -0.003700 21.199493 -0.826900
								CHANNELS 3 Xrotation Yrotation Zrotation
								JOINT Head
								{
									OFFSET 0.000000 20.442200 4.834800
									CHANNELS 3 Xrotation Yrotation Zrotation
									JOINT HeadTop_End
									{
										OFFSET 0.000000 34.668396 4.968400
										CHANNELS 3 Xrotation Yrotation Zrotation
										End Site
										{
											OFFSET 0 0 0
										}
									}
								}
							}
						}
						JOINT LeftShoulder_virtual
						{
							OFFSET 0.000000 0.000000 0.000000
							CHANNELS 3 Xrotation Yrotation Zrotation
							JOINT LeftShoulder
							{
								OFFSET 3.288150 8.794197 -1.372250
								CHANNELS 3 Xrotation Yrotation Zrotation
								JOINT LeftShoulder_split
								{
									OFFSET 3.288150 8.794197 -1.372250
									CHANNELS 3 Xrotation Yrotation Zrotation
									JOINT LeftArm
									{
										OFFSET 11.953299 -2.279007 -0.146200
										CHANNELS 3 Xrotation Yrotation Zrotation
										JOINT LeftForeArm
										{
											OFFSET 18.448900 0.000000 0.000000
											CHANNELS 3 Xrotation Yrotation Zrotation
											JOINT LeftHand
											{
												OFFSET 29.527798 0.000000 0.000000
												CHANNELS 3 Xrotation Yrotation Zrotation
												End Site
												{
													OFFSET 0 0 0
												}
											}
										}
									}
								}
							}
						}
						JOINT RightShoulder_virtual
						{
							OFFSET 0.000000 0.000000 0.000000
							CHANNELS 3 Xrotation Yrotation Zrotation
							JOINT RightShoulder
							{
								OFFSET -3.249400 8.794197 -1.372250
								CHANNELS 3 Xrotation Yrotation Zrotation
								JOINT RightShoulder_split
								{
									OFFSET -3.249400 8.794197 -1.372250
									CHANNELS 3 Xrotation Yrotation Zrotation
									JOINT RightArm
									{
										OFFSET -11.953299 -2.279007 -0.146200
										CHANNELS 3 Xrotation Yrotation Zrotation
										JOINT RightForeArm
										{
											OFFSET -18.448900 0.000000 0.000000
											CHANNELS 3 Xrotation Yrotation Zrotation
											JOINT RightHand
											{
												OFFSET -29.527802 0.000000 0.000000
												CHANNELS 3 Xrotation Yrotation Zrotation
												End Site
												{
													OFFSET 0 0 0
												}
											}
										}
									}
								}
							}
						}
					}
				}
			}
		}
	}
}
MOTION
Frames: 11
Frame Time: 0.03333333
-0.579193 92.617027 4.009670 0.000000 0.000000 0.000000 -12.956439 -1.265528 -5.195061 -36.174512 19.443443 11.693766 42.376792 -8.972966 10.073225 3.467549 -8.177085 -0.473951 -1.018569 0.000002 0.000001 0.000000 0.000000 0.000000 -12.956439 -1.265528 -5.195061 -27.593411 -36.523231 -3.258947 39.092475 9.491185 -10.276178 0.854566 7.571396 -5.980085 -0.000018 -0.000002 -0.000001 0.000000 0.000000 0.000000 -12.956439 -1.265528 -5.195061 5.923545 -0.630424 2.824705 9.106088 -0.324704 -0.848842 0.000000 0.000000 0.000000 0.000000 0.000000 0.000000 9.111605 -0.022998 -0.851798 15.434441 0.560289 0.855191 -3.243828 0.523976 4.960276 0.000000 0.000000 0.000000 9.111605 -0.022998 -0.851798 0.689292 3.725265 -11.385282 0.000000 0.000000 0.000000 59.736889 -63.314665 -9.099219 0.000005 -20.467434 0.000009 0.000000 0.000000 0.000000 9.111605 -0.022998 -0.851798 1.381295 0.020057 11.778360 0.000000 0.000000 0.000000 9.839204 40.445348 56.843256 0.000002 26.830950 -0.000017 0.000000 0.000000 0.000000 
-0.586793 92.627090 4.021736 0.000000 0.000000 0.000000 -12.927288 -1.187265 -5.194627 -36.176667 19.413139 11.661758 42.349577 -8.977308 10.072168 3.480890 -8.191571 -0.458692 -1.031765 0.000001 0.000001 0.000000 0.000000 0.000000 -12.927288 -1.187265 -5.194627 -27.596377 -36.589590 -3.282535 39.069488 9.492764 -10.275160 0.838974 7.558666 -5.974815 -0.000018 -0.000002 -0.000001 0.000000 0.000000 0.000000 -12.927288 -1.187265 -5.194627 5.916412 -0.631055 2.831777 9.098281 -0.328488 -0.866142 0.000000 0.000000 0.000000 0.000000 0.000000 0.000000 9.103878 -0.028798 -0.868352 15.411977 0.550057 0.886043 -3.321174 0.521828 4.868123 0.000000 0.000000 0.000000 9.103878 -0.028798 -0.868352 0.689444 3.729465 -11.390503 0.000000 0.000000 0.000000 59.511363 -63.261970 -9.286501 0.000017 -20.488100 0.000040 0.000000 0.000000 0.000000 9.103878 -0.028798 -0.868352 1.379340 0.009006 11.778232 0.000000 0.000000 0.000000 9.848074 40.481175 56.846677 -0.000002 26.857865 -0.000017 0.000000 0.000000 0.000000 
-0.595104 92.636223 4.034512 0.000000 0.000000 0.000000 -12.902000 -1.117556 -5.195983 -36.178419 19.386116 11.637086 42.326484 -8.980827 10.071073 3.490772 -8.206251 -0.444062 -1.044757 -0.000007 -0.000000 0.000000 0.000000 0.000000 -12.902000 -1.117556 -5.195983 -27.596117 -36.657041 -3.303850 39.048926 9.494222 -10.274207 0.822923 7.551181 -5.972924 -0.000018 0.000000 -0.000001 0.000000 0.000000 0.000000 -12.902000 -1.117556 -5.195983 5.910977 -0.632813 2.838434 9.092753 -0.334138 -0.879476 0.000000 0.000000 0.000000 0.000000 0.000000 0.000000 9.098458 -0.036118 -0.880976 15.389693 0.540275 0.916377 -3.387414 0.520193 4.780246 0.000000 0.000000 0.000000 9.098458 -0.036118 -0.880976 0.689263 3.730459 -11.388658 0.000000 0.000000 0.000000 59.216306 -63.219370 -9.543472 0.000016 -20.491770 0.000005 0.000000 0.000000 0.000000 9.098458 -0.036118 -0.880976 1.377774 0.000540 11.774923 0.000000 0.000000 0.000000 9.850696 40.518120 56.852104 0.000004 26.876190 0.000021 0.000000 0.000000 0.000000 
-0.603642 92.644547 4.047680 0.000000 0.000000 0.000000 -12.880658 -1.054379 -5.198721 -36.179311 19.361769 11.617902 42.307442 -8.983881 10.070014 3.497632 -8.219959 -0.430037 -1.057875 0.000008 -0.000002 0.000000 0.000000 0.000000 -12.880658 -1.054379 -5.198721 -27.592549 -36.724151 -3.323149 39.030580 9.495856 -10.273318 0.806539 7.546792 -5.973158 -0.000018 0.000000 -0.000001 0.000000 0.000000 0.000000 -12.880658 -1.054379 -5.198721 5.907252 -0.635867 2.844830 9.089676 -0.341985 -0.888690 0.000000 0.000000 0.000000 0.000000 0.000000 0.000000 9.095516 -0.045238 -0.889513 15.367740 0.531760 0.945649 -3.441948 0.522780 4.698530 0.000000 0.000000 0.000000 9.095516 -0.045238 -0.889513 0.688684 3.728786 -11.378842 0.000000 0.000000 0.000000 58.849340 -63.190834 -9.874608 0.000002 -20.472908 -0.000004 0.000000 0.000000 0.000000 9.095516 -0.045238 -0.889513 1.376744 -0.004524 11.768822 0.000000 0.000000 0.000000 9.848460 40.558121 56.859057 0.000003 26.885310 -0.000004 0.000000 0.000000 0.000000 
-0.611346 92.651443 4.060555 0.000000 0.000000 0.000000 -12.864068 -0.996908 -5.202389 -36.178870 19.338846 11.601812 42.293525 -8.986706 10.068944 3.501761 -8.229865 -0.415648 -1.071363 -0.000004 0.000001 0.000000 0.000000 0.000000 -12.864068 -0.996908 -5.202389 -27.588490 -36.794215 -3.345149 39.015984 9.497837 -10.272343 0.790147 7.549061 -5.976024 -0.000018 0.000000 -0.000001 0.000000 0.000000 0.000000 -12.864068 -0.996908 -5.202389 5.905604 -0.640531 2.850570 9.089454 -0.352525 -0.893490 0.000000 0.000000 0.000000 0.000000 0.000000 0.000000 9.095484 -0.056505 -0.893683 15.346161 0.526141 0.972961 -3.483861 0.536703 4.627202 0.000000 0.000000 0.000000 9.095484 -0.056505 -0.893683 0.687502 3.724915 -11.357972 0.000000 0.000000 0.000000 58.404948 -63.178806 -10.288756 -0.000007 -20.429096 0.000016 0.000000 0.000000 0.000000 9.095484 -0.056505 -0.893683 1.376439 -0.005347 11.761290 0.000000 0.000000 0.000000 9.846462 40.606325 56.863114 0.000006 26.883456 -0.000036 0.000000 0.000000 0.000000 
-0.617065 92.656479 4.072456 0.000000 0.000000 0.000000 -12.852326 -0.942502 -5.206526 -36.176626 19.314831 11.585353 42.285384 -8.989830 10.067783 3.503728 -8.232613 -0.400865 -1.085650 0.000003 -0.000001 0.000000 0.000000 0.000000 -12.852326 -0.942502 -5.206526 -27.586765 -36.867442 -3.372944 39.007064 9.500423 -10.271264 0.773545 7.556758 -5.980450 -0.000018 0.000000 -0.000001 0.000000 0.000000 0.000000 -12.852326 -0.942502 -5.206526 5.906151 -0.647130 2.856098 9.092145 -0.366364 -0.893972 0.000000 0.000000 0.000000 0.000000 0.000000 0.000000 9.098417 -0.070449 -0.893589 15.324894 0.524880 0.997657 -3.513045 0.569328 4.568412 0.000000 0.000000 0.000000 9.098417 -0.070449 -0.893589 0.685564 3.720518 -11.324692 0.000000 0.000000 0.000000 57.886263 -63.183437 -10.785693 0.000006 -20.360958 0.000020 0.000000 0.000000 0.000000 9.098417 -0.070449 -0.893589 1.377106 -0.000482 11.752872 0.000000 0.000000 0.000000 9.850614 40.666861 56.859846 0.000007 26.869951 -0.000027 0.000000 0.000000 0.000000 
-0.620022 92.658913 4.083019 0.000000 0.000000 0.000000 -12.844388 -0.887061 -5.210387 -36.174311 19.287011 11.564620 42.284963 -8.992909 10.066827 3.503944 -8.226399 -0.384625 -1.101105 0.000002 0.000002 0.000000 0.000000 0.000000 -12.844388 -0.887061 -5.210387 -27.589714 -36.939429 -3.406724 39.005581 9.503278 -10.270135 0.755902 7.562838 -5.983961 -0.000018 -0.000002 -0.000001 0.000000 0.000000 0.000000 -12.844388 -0.887061 -5.210387 5.908680 -0.656041 2.862609 9.097359 -0.384194 -0.890354 0.000000 0.000000 0.000000 0.000000 0.000000 0.000000 9.103934 -0.087765 -0.889465 15.303877 0.528870 1.019291 -3.530410 0.626110 4.521814 0.000000 0.000000 0.000000 9.103934 -0.087765 -0.889465 0.682851 3.718140 -11.280314 0.000000 0.000000 0.000000 57.304850 -63.202541 -11.355867 -0.000023 -20.270992 -0.000009 0.000000 0.000000 0.000000 9.103934 -0.087765 -0.889465 1.379088 0.012058 11.742642 0.000000 0.000000 0.000000 9.865245 40.739377 56.846124 0.000007 26.846199 0.000020 0.000000 0.000000 0.000000 
-0.619888 92.659615 4.092129 0.000000 0.000000 0.000000 -12.838292 -0.826085 -5.213111 -36.171312 19.254607 11.536466 42.288693 -8.996810 10.065650 3.504557 -8.211974 -0.366192 -1.117801 0.000003 -0.000001 0.000000 0.000000 0.000000 -12.838292 -0.826085 -5.213111 -27.596720 -37.002236 -3.442953 39.010175 9.506170 -10.268904 0.736869 7.555771 -5.982757 -0.000018 0.000000 -0.000001 0.000000 0.000000 0.000000 -12.838292 -0.826085 -5.213111 5.912698 -0.667577 2.872339 9.104295 -0.406689 -0.882669 0.000000 0.000000 0.000000 0.000000 0.000000 0.000000 9.111250 -0.109239 -0.881373 15.283067 0.538127 1.037540 -3.537678 0.708481 4.484934 0.000000 0.000000 0.000000 9.111250 -0.109239 -0.881373 0.679501 3.720383 -11.229001 0.000000 0.000000 0.000000 56.677682 -63.233461 -11.982431 0.000007 -20.159730 0.000015 0.000000 0.000000 0.000000 9.111250 -0.109239 -0.881373 1.382646 0.034316 11.727984 0.000000 0.000000 0.000000 9.890851 40.817706 56.822396 0.000012 26.815755 -0.000026 0.000000 0.000000 0.000000 
-0.616681 92.659210 4.099941 0.000000 0.000000 0.000000 -12.831695 -0.756238 -5.214230 -36.169513 19.218993 11.500088 42.294918 -9.001128 10.064484 3.506681 -8.193197 -0.344158 -1.135171 0.000001 -0.000002 0.000000 0.000000 0.000000 -12.831695 -0.756238 -5.214230 -27.605572 -37.046461 -3.475310 39.018436 9.508621 -10.267837 0.716214 7.522432 -5.972965 -0.000018 0.000002 -0.000001 0.000000 0.000000 0.000000 -12.831695 -0.756238 -5.214230 5.917354 -0.681912 2.888113 9.111864 -0.434290 -0.870557 0.000000 0.000000 0.000000 0.000000 0.000000 0.000000 9.119272 -0.135482 -0.868979 15.262462 0.551697 1.052156 -3.537937 0.812653 4.454320 0.000000 0.000000 0.000000 9.119272 -0.135482 -0.868979 0.675834 3.728906 -11.176965 0.000000 0.000000 0.000000 56.024733 -63.274654 -12.644209 0.000003 -20.023922 0.000019 0.000000 0.000000 0.000000 9.119272 -0.135482 -0.868979 1.387919 0.067499 11.705601 0.000000 0.000000 0.000000 9.923900 40.890276 56.791578 -0.000013 26.784338 0.000010 0.000000 0.000000 0.000000 
-0.610679 92.658897 4.106617 0.000000 0.000000 0.000000 -12.822552 -0.676490 -5.213800 -36.170155 19.183835 11.457576 42.299874 -9.006008 10.063337 3.511963 -8.176473 -0.319012 -1.152098 0.000001 -0.000003 0.000000 0.000000 0.000000 -12.822552 -0.676490 -5.213800 -27.612570 -37.063222 -3.495762 39.026724 9.510095 -10.267478 0.694353 7.451358 -5.951437 -0.000018 0.000000 -0.000001 0.000000 0.000000 0.000000 -12.822552 -0.676490 -5.213800 5.921825 -0.698937 2.912630 9.119025 -0.466903 -0.853387 0.000000 0.000000 0.000000 0.000000 0.000000 0.000000 9.126973 -0.166606 -0.851681 15.242037 0.567871 1.063088 -3.534263 0.929958 4.427033 0.000000 0.000000 0.000000 9.126973 -0.166606 -0.851681 0.672238 3.743727 -11.130845 0.000000 0.000000 0.000000 55.366757 -63.325593 -13.317996 0.000006 -19.857563 -0.000007 0.000000 0.000000 0.000000 9.126973 -0.166606 -0.851681 1.394750 0.110999 11.673038 0.000000 0.000000 0.000000 9.958394 40.944375 56.758090 0.000022 26.758567 0.000002 0.000000 0.000000 0.000000 
-0.602424 92.659828 4.112133 0.000000 0.000000 0.000000 -12.809797 -0.588560 -5.212626 -36.174376 19.153611 11.413092 42.300471 -9.011131 10.062359 3.521474 -8.168684 -0.290696 -1.175297 -0.000002 0.000002 0.000000 0.000000 0.000000 -12.809797 -0.588560 -5.212626 -27.611965 -37.045464 -3.495444 39.030136 9.510199 -10.268146 0.672629 7.334879 -5.916463 -0.000018 0.000000 -0.000001 0.000000 0.000000 0.000000 -12.809797 -0.588560 -5.212626 5.925474 -0.718143 2.947349 9.125099 -0.503625 -0.830703 0.000000 0.000000 0.000000 0.000000 0.000000 0.000000 9.133654 -0.201865 -0.829019 15.221794 0.584592 1.070706 -3.530640 1.048749 4.401747 0.000000 0.000000 0.000000 9.133654 -0.201865 -0.829019 0.669122 3.763071 -11.095955 0.000000 0.000000 0.000000 54.726686 -63.386908 -13.978315 -0.000002 -19.654662 0.000025 0.000000 0.000000 0.000000 9.133654 -0.201865 -0.829019 1.402659 0.161826 11.630292 0.000000 0.000000 0.000000 9.988607 40.971197 56.725018 -0.000010 26.744156 -0.000008 0.000000 0.000000 0.000000 
